<?xml version="1.0" encoding="UTF-8"?>
<svg version="1.1" xmlns="http://www.w3.org/2000/svg" width="677" height="1009">
<path d="M0 0 C2.8253494 -0.0021838 5.65030516 -0.02041583 8.47558594 -0.03930664 C20.80165057 -0.07682462 32.85768905 0.7267065 45.09277344 2.18530273 C46.48876956 2.34324998 47.88484322 2.50051394 49.28100586 2.65698242 C55.96223548 3.42705089 62.4836552 4.60957154 69.03027344 6.12280273 C70.05930786 6.35942627 70.05930786 6.35942627 71.10913086 6.60083008 C75.27515544 7.60933475 79.20746721 8.93205906 83.20141602 10.48242188 C85.90954559 11.48883791 88.67425588 12.20415987 91.46777344 12.93530273 C106.06032659 17.05115106 119.70955257 23.12144611 133.09277344 30.18530273 C134.259375 30.79631836 135.42597656 31.40733398 136.62792969 32.03686523 C145.90397585 36.9623915 154.83812893 42.17365265 163.39355469 48.27124023 C165.88169077 50.03562038 168.3944959 51.75942826 170.91552734 53.47631836 C180.55955941 60.06851262 189.4526 67.41849197 198.2722168 75.06152344 C200.63863205 77.10865244 202.96150226 79.09120381 205.50683594 80.91577148 C206.03019531 81.3347168 206.55355469 81.75366211 207.09277344 82.18530273 C207.09277344 82.84530273 207.09277344 83.50530273 207.09277344 84.18530273 C207.75277344 84.18530273 208.41277344 84.18530273 209.09277344 84.18530273 C209.09277344 84.84530273 209.09277344 85.50530273 209.09277344 86.18530273 C209.73214844 86.45342773 210.37152344 86.72155273 211.03027344 86.99780273 C213.09277344 88.18530273 213.09277344 88.18530273 214.09277344 91.18530273 C214.75277344 91.18530273 215.41277344 91.18530273 216.09277344 91.18530273 C216.09277344 91.84530273 216.09277344 92.50530273 216.09277344 93.18530273 C216.75277344 93.18530273 217.41277344 93.18530273 218.09277344 93.18530273 C218.09277344 93.84530273 218.09277344 94.50530273 218.09277344 95.18530273 C218.75277344 95.18530273 219.41277344 95.18530273 220.09277344 95.18530273 C220.09277344 95.84530273 220.09277344 96.50530273 220.09277344 97.18530273 C221.08277344 97.51530273 222.07277344 97.84530273 223.09277344 98.18530273 C223.09277344 98.84530273 223.09277344 99.50530273 223.09277344 100.18530273 C223.75277344 100.18530273 224.41277344 100.18530273 225.09277344 100.18530273 C226.69911359 101.91922225 228.23030214 103.72339373 229.71777344 105.56030273 C230.53503906 106.55803711 231.35230469 107.55577148 232.19433594 108.58374023 C234.09277344 111.18530273 234.09277344 111.18530273 234.09277344 113.18530273 C234.75277344 113.18530273 235.41277344 113.18530273 236.09277344 113.18530273 C236.09277344 113.84530273 236.09277344 114.50530273 236.09277344 115.18530273 C236.75277344 115.18530273 237.41277344 115.18530273 238.09277344 115.18530273 C239.06420145 116.55685638 240.02399018 117.93811558 240.92382812 119.35766602 C242.14681199 121.26979158 243.43809091 123.11537537 244.75683594 124.96264648 C256.51887158 141.48588427 267.64728496 157.70708901 275.82714844 176.35717773 C276.73506264 178.38597368 277.68857256 180.39459799 278.67089844 182.38842773 C284.16999865 193.63433537 288.21385361 205.29450283 292.09277344 217.18530273 C292.46813232 218.33434082 292.46813232 218.33434082 292.85107422 219.5065918 C296.81812191 231.84158639 299.59818696 244.47847151 302.09277344 257.18530273 C302.25908768 257.87012222 302.42540192 258.55494171 302.59675598 259.26051331 C304.72140693 268.94698879 304.40165549 278.74047674 304.39355469 288.60327148 C304.39745058 290.58946318 304.40178706 292.57565405 304.40653992 294.56184387 C304.41397181 298.71313178 304.41373368 302.8643346 304.40844727 307.015625 C304.4026677 312.2926718 304.41956202 317.56936588 304.44279194 322.84635448 C304.45764459 326.94659913 304.45838524 331.04676118 304.45528221 335.14702797 C304.45579001 337.09036264 304.46092401 339.03370261 304.47109413 340.97701073 C304.52529159 352.78318001 303.73495454 363.65766555 301.09277344 375.18530273 C300.62713427 377.37914448 300.16215992 379.57312758 299.69824219 381.76733398 C299.23116332 383.84541836 298.7584621 385.92224667 298.28027344 387.99780273 C298.02528076 389.10510742 297.77028809 390.21241211 297.50756836 391.35327148 C295.37315603 400.40574079 292.75489059 409.2296256 289.78930664 418.0402832 C289.03632073 420.35915254 288.36143137 422.69414488 287.68652344 425.03686523 C286.05393928 430.52201083 283.9701092 435.77677906 281.78027344 441.06030273 C281.18641846 442.50385132 281.18641846 442.50385132 280.58056641 443.9765625 C278.04348196 450.07823514 275.33937426 456.01215701 272.28417969 461.87280273 C270.97563326 464.33734454 270.97563326 464.33734454 269.65527344 467.62280273 C267.15460553 473.32432557 264.08683749 478.73036412 261.09277344 484.18530273 C260.43277344 484.18530273 259.77277344 484.18530273 259.09277344 484.18530273 C258.86589844 484.98967773 258.63902344 485.79405273 258.40527344 486.62280273 C256.75645756 491.09816012 254.48732932 495.07251591 252.09277344 499.18530273 C251.43277344 499.18530273 250.77277344 499.18530273 250.09277344 499.18530273 C249.90714844 499.96905273 249.72152344 500.75280273 249.53027344 501.56030273 C247.52549854 506.61582204 244.58597771 511.01652593 241.09277344 515.18530273 C240.43277344 515.18530273 239.77277344 515.18530273 239.09277344 515.18530273 C238.78339844 515.96905273 238.47402344 516.75280273 238.15527344 517.56030273 C237.09277344 520.18530273 237.09277344 520.18530273 236.09277344 522.18530273 C235.43277344 522.18530273 234.77277344 522.18530273 234.09277344 522.18530273 C233.83496094 522.74733398 233.57714844 523.30936523 233.31152344 523.88842773 C231.95107567 526.45234852 230.36488382 528.63756639 228.59277344 530.93530273 C227.98433594 531.73452148 227.37589844 532.53374023 226.74902344 533.35717773 C226.20246094 533.96045898 225.65589844 534.56374023 225.09277344 535.18530273 C224.43277344 535.18530273 223.77277344 535.18530273 223.09277344 535.18530273 C222.82779053 535.7724707 222.56280762 536.35963867 222.28979492 536.96459961 C221.05486412 539.25563175 219.73537455 540.84085742 217.94042969 542.71655273 C217.32876953 543.36237305 216.71710938 544.00819336 216.08691406 544.67358398 C215.44947266 545.33745117 214.81203125 546.00131836 214.15527344 546.68530273 C212.89435951 548.00650451 211.63518734 549.32937117 210.37792969 550.65405273 C209.81984619 551.23606445 209.2617627 551.81807617 208.68676758 552.41772461 C207.01855428 554.1994486 207.01855428 554.1994486 205.51245117 556.40600586 C205.04395752 556.99317383 204.57546387 557.5803418 204.09277344 558.18530273 C203.43277344 558.18530273 202.77277344 558.18530273 202.09277344 558.18530273 C202.09277344 558.84530273 202.09277344 559.50530273 202.09277344 560.18530273 C201.43277344 560.18530273 200.77277344 560.18530273 200.09277344 560.18530273 C200.09277344 560.84530273 200.09277344 561.50530273 200.09277344 562.18530273 C197.71777344 564.81030273 197.71777344 564.81030273 195.09277344 567.18530273 C194.43277344 567.18530273 193.77277344 567.18530273 193.09277344 567.18530273 C193.09277344 567.84530273 193.09277344 568.50530273 193.09277344 569.18530273 C190.71777344 571.81030273 190.71777344 571.81030273 188.09277344 574.18530273 C187.43277344 574.18530273 186.77277344 574.18530273 186.09277344 574.18530273 C186.09277344 574.84530273 186.09277344 575.50530273 186.09277344 576.18530273 C184.65516353 577.42231591 183.21166015 578.65341716 181.73339844 579.84155273 C177.15807672 583.58895909 173.41555507 588.08635625 169.64355469 592.61108398 C169.13179688 593.13057617 168.62003906 593.65006836 168.09277344 594.18530273 C167.43277344 594.18530273 166.77277344 594.18530273 166.09277344 594.18530273 C166.09277344 594.84530273 166.09277344 595.50530273 166.09277344 596.18530273 C165.43277344 596.18530273 164.77277344 596.18530273 164.09277344 596.18530273 C163.83109375 596.77698242 163.56941406 597.36866211 163.29980469 597.97827148 C162.02878923 600.30229651 160.71292348 601.70228086 158.78027344 603.49780273 C156.29108225 605.89364925 154.2233564 608.26600814 152.28027344 611.12280273 C151.19746094 612.63874023 151.19746094 612.63874023 150.09277344 614.18530273 C149.43277344 614.18530273 148.77277344 614.18530273 148.09277344 614.18530273 C147.69058594 615.02061523 147.69058594 615.02061523 147.28027344 615.87280273 C145.98377848 618.39755608 144.66801021 620.82244758 143.09277344 623.18530273 C142.43277344 623.18530273 141.77277344 623.18530273 141.09277344 623.18530273 C140.83753906 623.88913086 140.58230469 624.59295898 140.31933594 625.31811523 C138.97164565 628.46844859 137.31200936 631.17271422 135.46777344 634.06030273 C123.75455237 652.83376878 115.59946841 671.44229497 114.21777344 693.74780273 C112.31051997 720.1959675 109.28873696 749.17699937 90.88964844 769.67358398 C89.09277344 771.18530273 89.09277344 771.18530273 86.09277344 771.18530273 C86.09277344 771.84530273 86.09277344 772.50530273 86.09277344 773.18530273 C71.74453253 780.71884806 54.82209414 782.46048619 39.06933594 778.20874023 C35.3445841 776.99839111 31.72743539 775.64307575 28.09277344 774.18530273 C26.77846643 773.6871009 25.46334505 773.19104272 24.14746094 772.69702148 C18.81167654 770.66164069 13.60301666 768.61971156 8.71777344 765.62280273 C-1.16829677 759.87769024 -14.57714699 756.24974747 -25.90722656 758.18530273 C-30.55081054 759.87455524 -33.71213089 762.42906611 -36.40722656 766.56030273 C-38.06515832 770.56697114 -38.62050713 772.90561935 -37.90722656 777.18530273 C-34.02966778 782.14079292 -30.60399874 783.13871875 -24.71972656 784.18530273 C-15.01767535 786.20327961 -6.67823411 788.62187218 -0.90722656 797.18530273 C0.85175624 802.46225113 0.86243551 807.92284823 -1.21972656 813.12280273 C-2.90722656 816.18530273 -2.90722656 816.18530273 -5.90722656 818.18530273 C-8.17723083 818.45704651 -8.17723083 818.45704651 -10.8659668 818.48828125 C-12.37784828 818.51324425 -12.37784828 818.51324425 -13.92027283 818.53871155 C-15.55156883 818.55133278 -15.55156883 818.55133278 -17.21582031 818.56420898 C-18.33408707 818.58120346 -19.45235382 818.59819794 -20.60450745 818.6157074 C-24.18452279 818.66891403 -27.76452672 818.70915626 -31.34472656 818.74780273 C-34.9212953 818.79175037 -38.49777467 818.83850003 -42.07423401 818.89060974 C-44.30116588 818.92252024 -46.52817624 818.94942475 -48.75523376 818.97084045 C-50.27184349 818.99107521 -50.27184349 818.99107521 -51.8190918 819.01171875 C-52.70717026 819.02123062 -53.59524872 819.03074249 -54.51023865 819.0405426 C-56.77196894 819.17713419 -58.73691012 819.55413878 -60.90722656 820.18530273 C-62.53556683 825.27386608 -62.3495322 829.81182733 -60.71972656 834.87280273 C-57.73865881 840.32096104 -53.5262347 842.77715639 -47.90722656 845.18530273 C-34.79527335 847.83695297 -19.59953599 846.41607254 -6.90722656 842.18530273 C12.89649921 838.88553974 30.98466045 839.77989407 48.09277344 851.18530273 C48.09277344 851.84530273 48.09277344 852.50530273 48.09277344 853.18530273 C48.75277344 853.18530273 49.41277344 853.18530273 50.09277344 853.18530273 C50.09277344 853.84530273 50.09277344 854.50530273 50.09277344 855.18530273 C50.98416016 855.52754883 50.98416016 855.52754883 51.89355469 855.87670898 C54.69641417 857.54448505 55.67068716 859.30499231 57.28027344 862.12280273 C57.78945313 862.99807617 58.29863281 863.87334961 58.82324219 864.77514648 C61.92981078 870.67284748 61.83568215 876.67056484 61.09277344 883.18530273 C58.57937004 890.79732446 54.81287311 896.76418453 48.09277344 901.18530273 C47.52558594 901.57202148 46.95839844 901.95874023 46.37402344 902.35717773 C38.61884702 907.2217884 30.65000667 907.52696031 21.78027344 907.49780273 C20.81154297 907.51391602 19.8428125 907.5300293 18.84472656 907.54663086 C7.04552921 907.55450224 -3.00315872 903.54756311 -13.70800781 898.99389648 C-16.76566424 897.70198602 -19.83361446 896.43876603 -22.90722656 895.18530273 C-24.03515625 894.71350586 -25.16308594 894.24170898 -26.32519531 893.75561523 C-35.10239104 890.30708328 -43.53585296 888.05280747 -52.76660156 891.14233398 C-60.56672867 894.7770086 -64.92238543 899.17336074 -67.90722656 907.18530273 C-68.56722656 907.18530273 -69.22722656 907.18530273 -69.90722656 907.18530273 C-72.14307294 917.32646307 -73.10706433 927.1192309 -70.34472656 937.24780273 C-69.90722656 939.18530273 -69.90722656 939.18530273 -69.90722656 943.18530273 C-69.24722656 943.18530273 -68.58722656 943.18530273 -67.90722656 943.18530273 C-65.59533475 946.88432964 -64.84525658 950.86510948 -64.90722656 955.18530273 C-66.03222656 957.68530273 -66.03222656 957.68530273 -67.90722656 959.18530273 C-70.28222656 959.74780273 -70.28222656 959.74780273 -72.90722656 959.18530273 C-81.53466655 952.24126567 -84.21033876 941.67978909 -85.90722656 931.18530273 C-87.17775704 917.18154375 -85.06006118 904.75145745 -76.90722656 893.18530273 C-76.28847656 892.27780273 -75.66972656 891.37030273 -75.03222656 890.43530273 C-67.17792383 882.11898219 -56.72050909 876.2578724 -45.22143555 875.79174805 C-30.97661873 875.51374013 -17.79597267 879.36684438 -4.90551758 885.27514648 C9.00674732 891.61172847 21.01813895 894.41965105 35.58886719 889.06030273 C38.09277344 888.18530273 38.09277344 888.18530273 40.09277344 888.18530273 C40.42277344 887.19530273 40.75277344 886.20530273 41.09277344 885.18530273 C41.75277344 885.18530273 42.41277344 885.18530273 43.09277344 885.18530273 C43.60558563 876.24549171 43.60558563 876.24549171 40.09277344 868.18530273 C39.43277344 867.85530273 38.77277344 867.52530273 38.09277344 867.18530273 C38.09277344 866.52530273 38.09277344 865.86530273 38.09277344 865.18530273 C37.45339844 864.93780273 36.81402344 864.69030273 36.15527344 864.43530273 C33.09277344 863.18530273 33.09277344 863.18530273 31.17871094 862.16186523 C19.89128824 856.37449578 8.37921155 859.71264917 -3.44238281 862.09545898 C-24.8531289 866.41100912 -47.8972206 870.19517193 -67.35253906 857.55249023 C-67.86558594 857.10131836 -68.37863281 856.65014648 -68.90722656 856.18530273 C-68.90722656 855.52530273 -68.90722656 854.86530273 -68.90722656 854.18530273 C-69.48472656 853.95842773 -70.06222656 853.73155273 -70.65722656 853.49780273 C-77.2164804 849.67157133 -80.36567683 841.93676025 -82.33300781 834.93139648 C-84.37890324 825.14728433 -82.39770774 816.91245529 -77.90722656 808.18530273 C-77.24722656 808.18530273 -76.58722656 808.18530273 -75.90722656 808.18530273 C-75.52244141 807.27458008 -75.52244141 807.27458008 -75.12988281 806.34545898 C-71.64090384 800.18122456 -63.32351198 798.01216178 -56.90722656 796.18530273 C-57.10058594 795.60522461 -57.29394531 795.02514648 -57.49316406 794.42749023 C-58.70019531 790.80639648 -58.70019531 790.80639648 -59.90722656 787.18530273 C-60.26429688 786.22366211 -60.62136719 785.26202148 -60.98925781 784.27124023 C-63.53142131 775.72524378 -62.38437189 766.30850606 -58.90722656 758.18530273 C-56.96972656 754.93530273 -56.96972656 754.93530273 -54.90722656 752.18530273 C-54.34390625 751.23655273 -53.78058594 750.28780273 -53.20019531 749.31030273 C-50.54730052 745.69477321 -47.92081067 743.76320929 -44.15722656 741.43530273 C-43.57457031 741.04987305 -42.99191406 740.66444336 -42.39160156 740.26733398 C-34.65110114 735.36162209 -27.10287948 734.86075563 -18.15722656 734.93530273 C-17.24457031 734.92756836 -16.33191406 734.91983398 -15.39160156 734.91186523 C-3.64182603 734.94487022 6.61991931 737.36191365 17.53027344 741.62280273 C18.57892578 742.01790039 19.62757813 742.41299805 20.70800781 742.82006836 C25.46047008 744.638165 29.73893333 746.54321729 34.09277344 749.18530273 C36.21690925 749.95626567 38.36536308 750.66261459 40.53027344 751.31030273 C41.62210937 751.64288086 42.71394531 751.97545898 43.83886719 752.31811523 C51.94391567 754.47816417 61.63412006 756.17125713 69.53027344 752.56030273 C77.19671738 747.97313441 79.63525106 741.42519422 82.09277344 733.18530273 C83.13669924 728.2779382 83.87995956 723.33691902 84.59277344 718.37280273 C84.80275769 716.97318847 85.01354754 715.57369485 85.22509766 714.17431641 C86.28611501 707.08589151 87.26519628 699.98744903 88.19433594 692.88061523 C88.2818512 692.21304703 88.36936646 691.54547882 88.45953369 690.85768127 C88.87208383 687.69699847 89.27429384 684.53552432 89.66113281 681.37158203 C91.03253483 670.5138875 93.1611413 659.92486206 96.90527344 649.62280273 C97.16679199 648.89939697 97.42831055 648.17599121 97.69775391 647.43066406 C103.11973682 632.76851507 111.39624469 615.76132385 122.09277344 604.18530273 C122.75277344 604.18530273 123.41277344 604.18530273 124.09277344 604.18530273 C124.34027344 603.48018555 124.58777344 602.77506836 124.84277344 602.04858398 C126.25381002 598.81642831 128.01784603 596.22201371 130.09277344 593.37280273 C130.79402344 592.39698242 131.49527344 591.42116211 132.21777344 590.41577148 C132.83652344 589.6797168 133.45527344 588.94366211 134.09277344 588.18530273 C134.75277344 588.18530273 135.41277344 588.18530273 136.09277344 588.18530273 C136.09277344 587.52530273 136.09277344 586.86530273 136.09277344 586.18530273 C136.75277344 586.18530273 137.41277344 586.18530273 138.09277344 586.18530273 C138.09277344 585.52530273 138.09277344 584.86530273 138.09277344 584.18530273 C138.75277344 584.18530273 139.41277344 584.18530273 140.09277344 584.18530273 C140.31964844 583.65420898 140.54652344 583.12311523 140.78027344 582.57592773 C142.52646633 579.39536211 144.7733863 576.70531366 147.09277344 573.93530273 C147.76953125 573.10385742 147.76953125 573.10385742 148.45996094 572.25561523 C149.62350372 570.85798692 150.85372082 569.5164471 152.09277344 568.18530273 C152.75277344 568.18530273 153.41277344 568.18530273 154.09277344 568.18530273 C154.09277344 567.52530273 154.09277344 566.86530273 154.09277344 566.18530273 C154.75277344 566.18530273 155.41277344 566.18530273 156.09277344 566.18530273 C156.09277344 565.52530273 156.09277344 564.86530273 156.09277344 564.18530273 C156.75277344 564.18530273 157.41277344 564.18530273 158.09277344 564.18530273 C158.32005127 563.63132812 158.5473291 563.07735352 158.78149414 562.5065918 C160.47539468 559.50796839 162.61500251 557.45735812 165.07324219 555.04467773 C165.80985832 554.31586395 165.80985832 554.31586395 166.56135559 553.57232666 C168.12962991 552.02179971 169.70440826 550.47811118 171.28027344 548.93530273 C177.78534371 542.54673816 184.23336332 536.18476037 190.09277344 529.18530273 C191.36360677 527.68530273 192.6344401 526.18530273 193.90527344 524.68530273 C194.46859375 524.01499023 195.03191406 523.34467773 195.61230469 522.65405273 C197.09277344 521.18530273 197.09277344 521.18530273 199.09277344 521.18530273 C199.43308594 520.41186523 199.43308594 520.41186523 199.78027344 519.62280273 C201.57494962 516.28983269 203.59242359 513.03826602 206.09277344 510.18530273 C206.75277344 510.18530273 207.41277344 510.18530273 208.09277344 510.18530273 C208.36089844 509.44280273 208.62902344 508.70030273 208.90527344 507.93530273 C210.04554094 505.29468325 211.1865765 503.32977429 213.09277344 501.18530273 C213.75277344 501.18530273 214.41277344 501.18530273 215.09277344 501.18530273 C215.1971875 500.62327148 215.30160156 500.06124023 215.40917969 499.48217773 C216.21890579 496.76149803 217.45480682 494.79272466 219.03027344 492.43530273 C219.55492187 491.63608398 220.07957031 490.83686523 220.62011719 490.01342773 C221.34908203 489.10850586 221.34908203 489.10850586 222.09277344 488.18530273 C222.75277344 488.18530273 223.41277344 488.18530273 224.09277344 488.18530273 C224.24552734 487.32678711 224.24552734 487.32678711 224.40136719 486.45092773 C225.21966782 483.76949063 226.44920654 482.15824183 228.15527344 479.93530273 C233.02677005 473.10536607 236.51626094 465.73832335 240.09277344 458.18530273 C240.60211426 457.11731445 241.11145508 456.04932617 241.63623047 454.94897461 C243.07054584 451.93436818 244.49781352 448.91674643 245.91741943 445.89520264 C246.75425271 444.11563705 247.59556139 442.33817813 248.43701172 440.56079102 C252.15956826 432.56867616 255.25640067 424.52985566 258.09277344 416.18530273 C258.3712915 415.38576172 258.64980957 414.5862207 258.93676758 413.76245117 C259.69404977 411.58107261 260.39805958 409.38747821 261.09277344 407.18530273 C261.64578125 405.44313477 261.64578125 405.44313477 262.20996094 403.66577148 C270.12118586 378.13096408 274.45051024 351.89809957 275.09277344 325.18530273 C275.1146875 324.4004248 275.13660156 323.61554688 275.15917969 322.80688477 C276.3949108 272.87304996 265.01295321 224.82912511 241.10058594 181.03637695 C240.20148339 179.38497301 239.31791501 177.7251332 238.43652344 176.06420898 C231.57837845 163.20518713 223.28535229 151.29897637 214.26464844 139.86889648 C213.09277344 138.18530273 213.09277344 138.18530273 213.09277344 136.18530273 C212.43277344 136.18530273 211.77277344 136.18530273 211.09277344 136.18530273 C209.36621094 134.28686523 209.36621094 134.28686523 207.46777344 131.81030273 C206.5203125 130.59213867 206.5203125 130.59213867 205.55371094 129.34936523 C204.09277344 127.18530273 204.09277344 127.18530273 204.09277344 125.18530273 C203.43277344 125.18530273 202.77277344 125.18530273 202.09277344 125.18530273 C200.61230469 123.64624023 200.61230469 123.64624023 198.90527344 121.56030273 C195.98270714 118.09743006 192.93446442 115.21019366 189.37792969 112.41186523 C188.95382812 112.00709961 188.52972656 111.60233398 188.09277344 111.18530273 C188.09277344 110.52530273 188.09277344 109.86530273 188.09277344 109.18530273 C187.43277344 109.18530273 186.77277344 109.18530273 186.09277344 109.18530273 C186.09277344 108.52530273 186.09277344 107.86530273 186.09277344 107.18530273 C185.43277344 107.18530273 184.77277344 107.18530273 184.09277344 107.18530273 C182.40343422 105.54162133 180.74017419 103.87101514 179.09277344 102.18530273 C178.16464844 101.46342773 177.23652344 100.74155273 176.28027344 99.99780273 C175.55839844 99.39967773 174.83652344 98.80155273 174.09277344 98.18530273 C174.09277344 97.52530273 174.09277344 96.86530273 174.09277344 96.18530273 C173.43277344 96.18530273 172.77277344 96.18530273 172.09277344 96.18530273 C172.09277344 95.52530273 172.09277344 94.86530273 172.09277344 94.18530273 C171.25746094 93.78311523 171.25746094 93.78311523 170.40527344 93.37280273 C167.8805201 92.07630778 165.45562859 90.76053951 163.09277344 89.18530273 C163.09277344 88.52530273 163.09277344 87.86530273 163.09277344 87.18530273 C162.43277344 87.18530273 161.77277344 87.18530273 161.09277344 87.18530273 C161.09277344 86.52530273 161.09277344 85.86530273 161.09277344 85.18530273 C159.91714844 84.72124023 159.91714844 84.72124023 158.71777344 84.24780273 C156.09277344 83.18530273 156.09277344 83.18530273 154.09277344 82.18530273 C154.09277344 81.52530273 154.09277344 80.86530273 154.09277344 80.18530273 C153.41859375 79.95584961 152.74441406 79.72639648 152.04980469 79.48999023 C147.62478812 77.53760512 143.84587263 74.74409662 139.88378906 71.99389648 C135.44870189 68.96439078 130.93333825 66.50131128 126.09277344 64.18530273 C124.81649369 63.54513496 123.54173664 62.90192204 122.26855469 62.25561523 C118.21945194 60.21290412 114.15778166 58.19613621 110.09277344 56.18530273 C109.02929688 55.65549805 107.96582031 55.12569336 106.87011719 54.57983398 C91.34338167 47.10696644 74.81581004 42.17183876 58.09277344 38.18530273 C57.37549072 38.01216553 56.65820801 37.83902832 55.91918945 37.66064453 C50.12151086 36.31069329 44.30393099 35.40684405 38.40527344 34.62280273 C37.43485107 34.49349365 36.46442871 34.36418457 35.46459961 34.23095703 C9.38749573 30.83978361 -17.05505935 31.26236819 -42.83056641 36.75561523 C-45.13853493 37.23316339 -47.45268549 37.6644545 -49.77050781 38.09155273 C-60.43785426 40.08300838 -70.64586513 42.66862774 -80.90722656 46.18530273 C-81.60976562 46.42007324 -82.31230469 46.65484375 -83.03613281 46.89672852 C-97.63998799 51.77883126 -111.27488564 58.26072244 -124.98730469 65.22241211 C-126.28187223 65.87167131 -127.58291022 66.50816635 -128.88964844 67.13256836 C-133.82479554 69.51124199 -138.28438812 72.31583414 -142.78222656 75.43530273 C-149.64037263 80.18530273 -149.64037263 80.18530273 -151.90722656 80.18530273 C-151.90722656 80.84530273 -151.90722656 81.50530273 -151.90722656 82.18530273 C-156.29184195 85.18530273 -156.29184195 85.18530273 -158.90722656 85.18530273 C-158.90722656 85.84530273 -158.90722656 86.50530273 -158.90722656 87.18530273 C-160.56738281 88.63842773 -160.56738281 88.63842773 -162.96972656 90.43530273 C-170.38033971 96.21431782 -177.12110473 102.6947336 -183.90722656 109.18530273 C-184.82632813 110.06186523 -185.74542969 110.93842773 -186.69238281 111.84155273 C-190.07441408 115.13889206 -193.15521201 118.35692001 -195.84472656 122.24780273 C-196.52535156 123.21717773 -197.20597656 124.18655273 -197.90722656 125.18530273 C-198.56722656 125.18530273 -199.22722656 125.18530273 -199.90722656 125.18530273 C-200.15601563 125.90717773 -200.40480469 126.62905273 -200.66113281 127.37280273 C-202.02638666 130.45425343 -203.68219397 132.6079827 -205.84472656 135.18530273 C-208.53263809 138.4007483 -210.8054702 141.56158486 -212.90722656 145.18530273 C-214.72355709 148.01687479 -216.55177933 150.84041565 -218.38378906 153.66186523 C-220.02426676 156.17043671 -220.02426676 156.17043671 -220.90722656 159.18530273 C-221.56722656 159.18530273 -222.22722656 159.18530273 -222.90722656 159.18530273 C-223.04064453 159.94907227 -223.04064453 159.94907227 -223.17675781 160.72827148 C-224.20995306 164.2035646 -225.92639085 167.29529009 -227.59472656 170.49780273 C-231.53876456 178.22553038 -234.83860931 186.07604393 -237.90722656 194.18530273 C-238.26429688 195.09280273 -238.62136719 196.00030273 -238.98925781 196.93530273 C-242.26412211 205.49431061 -244.57717702 214.33338033 -246.90722656 223.18530273 C-247.09317383 223.87366211 -247.27912109 224.56202148 -247.47070312 225.27124023 C-257.68432815 263.3823347 -256.95118485 306.12164181 -246.90722656 344.18530273 C-246.72434082 344.87994629 -246.54145508 345.57458984 -246.35302734 346.2902832 C-241.47719362 364.43712 -235.40513723 383.43843674 -224.90722656 399.18530273 C-224.90722656 400.17530273 -224.90722656 401.16530273 -224.90722656 402.18530273 C-224.24722656 402.18530273 -223.58722656 402.18530273 -222.90722656 402.18530273 C-222.37935547 403.20237305 -222.37935547 403.20237305 -221.84082031 404.23999023 C-218.70409692 410.15308238 -215.32964966 415.62810446 -211.32519531 420.99389648 C-209.95285558 423.11478516 -209.34013183 424.71718047 -208.90722656 427.18530273 C-208.24722656 427.18530273 -207.58722656 427.18530273 -206.90722656 427.18530273 C-203.90722656 431.56991812 -203.90722656 431.56991812 -203.90722656 434.18530273 C-203.24722656 434.18530273 -202.58722656 434.18530273 -201.90722656 434.18530273 C-200.99587867 435.51727272 -200.09458843 436.85675704 -199.23144531 438.22045898 C-197.01351291 441.51137344 -194.46632849 444.53791969 -191.97363281 447.62280273 C-188.06454715 452.47036454 -184.26451287 457.40194274 -180.49316406 462.35717773 C-175.82475035 468.48519254 -171.05508585 474.44948998 -165.90722656 480.18530273 C-160.90722656 485.85789157 -160.90722656 485.85789157 -160.90722656 488.18530273 C-160.24722656 488.18530273 -159.58722656 488.18530273 -158.90722656 488.18530273 C-157.18066406 490.08374023 -157.18066406 490.08374023 -155.28222656 492.56030273 C-154.65058594 493.37241211 -154.01894531 494.18452148 -153.36816406 495.02124023 C-151.90722656 497.18530273 -151.90722656 497.18530273 -151.90722656 499.18530273 C-151.24722656 499.18530273 -150.58722656 499.18530273 -149.90722656 499.18530273 C-148.61816406 500.64624023 -148.61816406 500.64624023 -147.28222656 502.56030273 C-146.83621094 503.18678711 -146.39019531 503.81327148 -145.93066406 504.45874023 C-144.90722656 506.18530273 -144.90722656 506.18530273 -144.90722656 508.18530273 C-144.24722656 508.18530273 -143.58722656 508.18530273 -142.90722656 508.18530273 C-141.75097656 509.47827148 -141.75097656 509.47827148 -140.40722656 511.37280273 C-137.78623475 514.99166613 -135.09183839 518.53595926 -132.34472656 522.06030273 C-128.0804409 527.58687695 -123.90756228 533.17935768 -119.78222656 538.81030273 C-119.20142334 539.59260254 -118.62062012 540.37490234 -118.0222168 541.1809082 C-117.21892944 542.28523193 -117.21892944 542.28523193 -116.39941406 543.41186523 C-115.67794189 544.39533936 -115.67794189 544.39533936 -114.94189453 545.39868164 C-113.90722656 547.18530273 -113.90722656 547.18530273 -113.90722656 550.18530273 C-113.24722656 550.18530273 -112.58722656 550.18530273 -111.90722656 550.18530273 C-110.26052373 552.48701376 -108.75669619 554.77547942 -107.28222656 557.18530273 C-106.61453247 558.26702759 -106.61453247 558.26702759 -105.93334961 559.37060547 C-101.82718888 566.12907449 -98.23475966 573.08569021 -94.84082031 580.22387695 C-93.91634973 582.16613549 -92.97540902 584.09973093 -92.03222656 586.03295898 C-83.53487843 603.7026887 -79.09666569 621.90685336 -74.56396484 640.90771484 C-73.73979216 644.35022811 -72.90224995 647.7892912 -72.06347656 651.22827148 C-71.82060913 652.26501511 -71.5777417 653.30175873 -71.32751465 654.36991882 C-68.95862608 664.04028688 -64.96202541 672.60120702 -60.02050781 681.21264648 C-58.90722656 683.18530273 -58.90722656 683.18530273 -58.01269531 685.31420898 C-56.62203314 687.66801527 -55.37846274 688.09304365 -52.90722656 689.18530273 C-50.89650506 690.65636738 -48.95470202 692.19725068 -47.00488281 693.74780273 C-41.07435744 697.81192441 -34.89511441 698.16669661 -27.90722656 697.18530273 C-20.93696077 694.44822665 -18.09626171 688.566448 -15.03613281 682.08764648 C-13.02273043 676.91132132 -12.74875483 672.03504538 -12.73925781 666.52514648 C-12.73511368 665.78685104 -12.73096954 665.0485556 -12.72669983 664.28788757 C-12.71704358 661.89947507 -12.71703911 659.51123172 -12.71972656 657.12280273 C-12.71963593 655.90436676 -12.71963593 655.90436676 -12.71954346 654.66131592 C-12.73258076 642.39806103 -13.15558462 630.33937024 -14.90722656 618.18530273 C-15.08640625 616.91557617 -15.26558594 615.64584961 -15.45019531 614.33764648 C-15.7819938 612.0449938 -16.1199201 609.75321402 -16.46582031 607.46264648 C-17.19392688 602.05661631 -17.56369822 596.62751492 -17.90722656 591.18530273 C-18.52766846 591.16024658 -19.14811035 591.13519043 -19.78735352 591.109375 C-22.59835053 590.99333553 -25.40901897 590.87064514 -28.21972656 590.74780273 C-29.68442383 590.68882812 -29.68442383 590.68882812 -31.17871094 590.62866211 C-32.11650391 590.58676758 -33.05429687 590.54487305 -34.02050781 590.50170898 C-34.88458252 590.46505127 -35.74865723 590.42839355 -36.63891602 590.390625 C-38.90722656 590.18530273 -38.90722656 590.18530273 -41.90722656 589.18530273 C-41.90722656 588.52530273 -41.90722656 587.86530273 -41.90722656 587.18530273 C-36.21459056 585.96120773 -30.62977495 584.95100498 -24.81738281 584.52905273 C-22.58494789 584.25830121 -22.58494789 584.25830121 -19.90722656 582.18530273 C-19.65308198 579.61606891 -19.59041784 577.30445727 -19.66894531 574.73999023 C-19.6812468 573.98386444 -19.69354828 573.22773865 -19.70622253 572.44869995 C-19.7533056 570.02658768 -19.82616419 567.60650289 -19.90722656 565.18530273 C-19.93157776 564.42350708 -19.95592896 563.66171143 -19.98101807 562.87683105 C-20.16844086 557.3514944 -20.43432567 551.83133603 -20.71972656 546.31030273 C-20.78400345 545.02603394 -20.78400345 545.02603394 -20.84957886 543.71582031 C-21.51094332 530.61605947 -22.47423779 517.56315011 -23.66952515 504.5020752 C-24.60761842 494.24961048 -25.31050644 484.02038162 -25.61645508 473.72631836 C-25.6924405 471.21113134 -25.78876001 468.69883179 -25.90722656 466.18530273 C-25.94533447 465.37367676 -25.98344238 464.56205078 -26.02270508 463.72583008 C-26.39436662 458.76591223 -27.18822162 455.88856543 -30.59472656 452.06030273 C-31.31917969 451.22241211 -32.04363281 450.38452148 -32.79003906 449.52124023 C-33.48871094 448.75038086 -34.18738281 447.97952148 -34.90722656 447.18530273 C-42.01932375 439.11118274 -47.83815669 430.86303814 -52.49707031 421.12280273 C-53.38666594 419.26968386 -54.31207398 417.43295172 -55.28613281 415.62280273 C-64.84417889 397.81915869 -64.86868112 376.41093915 -59.90722656 357.18530273 C-58.51508219 352.74247161 -56.78170779 348.44548733 -54.90722656 344.18530273 C-54.24722656 344.18530273 -53.58722656 344.18530273 -52.90722656 344.18530273 C-52.79378906 343.47245117 -52.68035156 342.75959961 -52.56347656 342.02514648 C-50.67785285 333.86533434 -45.59915318 326.45250627 -41.15722656 319.43530273 C-40.76857422 318.81469971 -40.37992188 318.19409668 -39.97949219 317.5546875 C-39.01193124 316.06007601 -37.96599231 314.61675402 -36.90722656 313.18530273 C-36.24722656 313.18530273 -35.58722656 313.18530273 -34.90722656 313.18530273 C-34.59785156 312.40155273 -34.28847656 311.61780273 -33.96972656 310.81030273 C-32.90722656 308.18530273 -32.90722656 308.18530273 -31.90722656 306.18530273 C-31.24722656 306.18530273 -30.58722656 306.18530273 -29.90722656 306.18530273 C-29.59785156 305.38092773 -29.28847656 304.57655273 -28.96972656 303.74780273 C-27.90722656 301.18530273 -27.90722656 301.18530273 -26.90722656 300.18530273 C-25.9951615 294.2934956 -25.6902772 288.44930267 -25.46972656 282.49780273 C-25.13814772 274.6191861 -24.53554691 266.81744157 -23.70166016 258.97753906 C-23.13103814 253.33660632 -22.76100371 247.70429741 -22.50878906 242.04077148 C-20.64704139 201.02630661 -20.64704139 201.02630661 -9.90722656 183.18530273 C-9.42769531 182.32807617 -8.94816406 181.47084961 -8.45410156 180.58764648 C-2.60601513 171.50539104 9.72490414 163.77727006 20.09277344 161.18530273 C29.57898299 160.00504178 36.9043581 161.28525102 45.09277344 166.18530273 C45.82238281 166.6197168 46.55199219 167.05413086 47.30371094 167.50170898 C55.65239829 173.11548152 61.58523983 182.37883362 63.74511719 192.13061523 C66.93626557 210.44321838 64.39615368 226.00318688 53.93261719 241.59545898 C47.61017207 250.49520657 47.61017207 250.49520657 45.09277344 253.18530273 C44.43277344 253.18530273 43.77277344 253.18530273 43.09277344 253.18530273 C43.09277344 253.84530273 43.09277344 254.50530273 43.09277344 255.18530273 C42.43277344 255.18530273 41.77277344 255.18530273 41.09277344 255.18530273 C41.09277344 255.84530273 41.09277344 256.50530273 41.09277344 257.18530273 C40.43277344 257.18530273 39.77277344 257.18530273 39.09277344 257.18530273 C38.76277344 258.17530273 38.43277344 259.16530273 38.09277344 260.18530273 C37.43277344 260.18530273 36.77277344 260.18530273 36.09277344 260.18530273 C36.09277344 260.84530273 36.09277344 261.50530273 36.09277344 262.18530273 C35.43277344 262.18530273 34.77277344 262.18530273 34.09277344 262.18530273 C34.09277344 262.84530273 34.09277344 263.50530273 34.09277344 264.18530273 C33.43277344 264.18530273 32.77277344 264.18530273 32.09277344 264.18530273 C32.09277344 264.84530273 32.09277344 265.50530273 32.09277344 266.18530273 C31.43277344 266.18530273 30.77277344 266.18530273 30.09277344 266.18530273 C29.82464844 266.82467773 29.55652344 267.46405273 29.28027344 268.12280273 C28.09277344 270.18530273 28.09277344 270.18530273 25.09277344 271.18530273 C25.09277344 271.84530273 25.09277344 272.50530273 25.09277344 273.18530273 C24.43277344 273.18530273 23.77277344 273.18530273 23.09277344 273.18530273 C22.82464844 273.78342773 22.55652344 274.38155273 22.28027344 274.99780273 C21.09359937 277.18378127 19.99678231 278.59862867 18.09277344 280.18530273 C17.43277344 280.18530273 16.77277344 280.18530273 16.09277344 280.18530273 C16.09277344 280.84530273 16.09277344 281.50530273 16.09277344 282.18530273 C15.43277344 282.18530273 14.77277344 282.18530273 14.09277344 282.18530273 C13.75246094 283.02061523 13.75246094 283.02061523 13.40527344 283.87280273 C11.71727308 286.84689861 9.62600827 288.90539138 7.09277344 291.18530273 C6.43277344 291.18530273 5.77277344 291.18530273 5.09277344 291.18530273 C4.82464844 291.72155273 4.55652344 292.25780273 4.28027344 292.81030273 C3.09277344 295.18530273 3.09277344 295.18530273 1.54083252 297.66035461 C-0.44782316 302.50125384 -0.31105122 306.77601685 -0.26367188 311.95947266 C-0.26673843 313.5735778 -0.26673843 313.5735778 -0.26986694 315.22029114 C-0.2728778 318.78562344 -0.25435378 322.35049378 -0.23535156 325.91577148 C-0.23228784 328.42409654 -0.23041639 330.93242331 -0.22967529 333.44075012 C-0.22506656 338.71919663 -0.2110425 343.99748825 -0.18847656 349.27587891 C-0.16005789 355.93444183 -0.14940641 362.59291175 -0.14464569 369.25153923 C-0.12690024 392.08056617 -0.09058137 414.91311961 0.48339844 437.73608398 C0.49831078 438.42532644 0.51322311 439.1145689 0.52858734 439.82469749 C0.42978195 455.55315766 0.42978195 455.55315766 7.55761719 468.84545898 C9.2629482 470.39206571 9.2629482 470.39206571 12.09277344 472.18530273 C12.09277344 472.84530273 12.09277344 473.50530273 12.09277344 474.18530273 C12.66640625 474.42893555 13.24003906 474.67256836 13.83105469 474.92358398 C16.49283561 476.40848077 18.18830504 478.15889811 20.28027344 480.37280273 C24.07398849 484.27995113 28.03148102 487.58713745 32.44042969 490.77514648 C32.98570312 491.24049805 33.53097656 491.70584961 34.09277344 492.18530273 C34.09277344 492.84530273 34.09277344 493.50530273 34.09277344 494.18530273 C34.68155273 494.44956055 35.27033203 494.71381836 35.87695312 494.98608398 C38.17349928 496.22899217 39.7011051 497.53536755 41.54589844 499.37280273 C42.16464844 499.98897461 42.78339844 500.60514648 43.42089844 501.23999023 C44.05511719 501.88194336 44.68933594 502.52389648 45.34277344 503.18530273 C45.99246094 503.82725586 46.64214844 504.46920898 47.31152344 505.13061523 C47.92511719 505.74678711 48.53871094 506.36295898 49.17089844 506.99780273 C49.73196289 507.56112305 50.29302734 508.12444336 50.87109375 508.70483398 C52.09277344 510.18530273 52.09277344 510.18530273 52.09277344 512.18530273 C52.75277344 512.18530273 53.41277344 512.18530273 54.09277344 512.18530273 C56.38925993 514.74676844 57.09277344 515.66497846 57.09277344 519.18530273 C57.75277344 519.18530273 58.41277344 519.18530273 59.09277344 519.18530273 C65.32035207 531.90192323 69.1595274 546.00973763 64.96777344 560.12280273 C59.84419841 572.70322405 51.23076491 578.94011838 39.09277344 584.18530273 C30.92682613 587.2110257 22.74462909 587.81901979 14.09277344 588.18530273 C13.80538987 607.82280479 13.80538987 607.82280479 15.30664062 627.38061523 C16.95262012 640.87647555 17.43398835 654.59874521 17.09277344 668.18530273 C17.06441406 669.47952148 17.03605469 670.77374023 17.00683594 672.10717773 C16.57322975 684.72572417 14.09865036 696.50767104 7.09277344 707.18530273 C6.64417969 707.87881836 6.19558594 708.57233398 5.73339844 709.28686523 C4.59256057 710.97127878 3.35116755 712.5868021 2.09277344 714.18530273 C1.43277344 714.18530273 0.77277344 714.18530273 0.09277344 714.18530273 C-0.21660156 715.02061523 -0.21660156 715.02061523 -0.53222656 715.87280273 C-4.42629201 722.42191281 -11.00575679 725.13098276 -18.04394531 727.03295898 C-34.88277183 731.01573973 -51.03793117 729.35768074 -66.36035156 720.81811523 C-68.28222656 719.49780273 -68.28222656 719.49780273 -70.90722656 717.18530273 C-70.90722656 716.52530273 -70.90722656 715.86530273 -70.90722656 715.18530273 C-71.58785156 714.99967773 -72.26847656 714.81405273 -72.96972656 714.62280273 C-78.01827252 712.15223769 -81.87416152 708.29634869 -84.34472656 703.24780273 C-84.62316406 702.22686523 -84.62316406 702.22686523 -84.90722656 701.18530273 C-85.56722656 701.18530273 -86.22722656 701.18530273 -86.90722656 701.18530273 C-88.90722656 698.18530273 -88.90722656 698.18530273 -88.90722656 695.18530273 C-89.56722656 695.18530273 -90.22722656 695.18530273 -90.90722656 695.18530273 C-96.46478305 682.98856545 -101.10434275 671.30395481 -103.90722656 658.18530273 C-104.39969888 656.24587569 -104.89930747 654.30824182 -105.40722656 652.37280273 C-106.3180301 648.7642387 -107.13183041 645.1475891 -107.87597656 641.50170898 C-108.13217773 640.24934448 -108.13217773 640.24934448 -108.39355469 638.97167969 C-108.72665019 637.32694149 -109.05384058 635.68099202 -109.37402344 634.03369141 C-110.42153187 628.84233088 -111.94481132 624.09622248 -113.90722656 619.18530273 C-114.41121806 617.83000953 -114.91120041 616.47321892 -115.40722656 615.11499023 C-115.65472656 614.4459668 -115.90222656 613.77694336 -116.15722656 613.08764648 C-116.65976969 611.72920959 -117.1597458 610.36982045 -117.65722656 609.00952148 C-118.83109896 605.84862549 -120.05695288 602.89208869 -121.59472656 599.88061523 C-122.90722656 597.18530273 -122.90722656 597.18530273 -122.90722656 594.18530273 C-123.56722656 594.18530273 -124.22722656 594.18530273 -124.90722656 594.18530273 C-126.20140056 591.62404209 -127.49263441 589.06136915 -128.78222656 586.49780273 C-129.14703125 585.77657227 -129.51183594 585.0553418 -129.88769531 584.31225586 C-131.72515077 580.65404909 -133.46861158 577.02413323 -134.90722656 573.18530273 C-135.56722656 573.18530273 -136.22722656 573.18530273 -136.90722656 573.18530273 C-137.89722656 570.21530273 -137.89722656 570.21530273 -138.90722656 567.18530273 C-139.56722656 567.18530273 -140.22722656 567.18530273 -140.90722656 567.18530273 C-142.21191406 565.30639648 -142.21191406 565.30639648 -143.78222656 562.62280273 C-147.25280345 556.99757602 -151.18692529 551.93157581 -155.35961914 546.81274414 C-158.5076401 542.94723531 -161.53168277 539.02772276 -164.46972656 534.99780273 C-167.98441332 530.25647123 -171.77388123 525.93882657 -175.79736328 521.63623047 C-188.90722656 507.58663362 -188.90722656 507.58663362 -188.90722656 504.18530273 C-189.56722656 504.18530273 -190.22722656 504.18530273 -190.90722656 504.18530273 C-191.56722656 502.53530273 -192.22722656 500.88530273 -192.90722656 499.18530273 C-193.56722656 499.18530273 -194.22722656 499.18530273 -194.90722656 499.18530273 C-197.90722656 495.72376427 -197.90722656 495.72376427 -197.90722656 493.18530273 C-198.56722656 493.18530273 -199.22722656 493.18530273 -199.90722656 493.18530273 C-201.57128906 491.34936523 -201.57128906 491.34936523 -203.53222656 488.81030273 C-204.25023437 487.88991211 -204.96824219 486.96952148 -205.70800781 486.02124023 C-206.79662109 484.61745117 -206.79662109 484.61745117 -207.90722656 483.18530273 C-209.17520592 481.59968293 -210.44599506 480.01630554 -211.71972656 478.43530273 C-212.36683594 477.62319336 -213.01394531 476.81108398 -213.68066406 475.97436523 C-215.38650806 473.83757118 -217.10149014 471.70924675 -218.82128906 469.58374023 C-219.82939563 468.32616341 -220.83720982 467.06835215 -221.84472656 465.81030273 C-222.57236206 464.91746582 -222.57236206 464.91746582 -223.31469727 464.0065918 C-225.63851491 461.08929158 -227.17724808 458.83667585 -227.90722656 455.18530273 C-228.56722656 455.18530273 -229.22722656 455.18530273 -229.90722656 455.18530273 C-231.63378906 453.06811523 -231.63378906 453.06811523 -233.53222656 450.31030273 C-234.4796875 448.95291992 -234.4796875 448.95291992 -235.44628906 447.56811523 C-236.90722656 445.18530273 -236.90722656 445.18530273 -236.90722656 443.18530273 C-237.56722656 443.18530273 -238.22722656 443.18530273 -238.90722656 443.18530273 C-239.56722656 441.20530273 -240.22722656 439.22530273 -240.90722656 437.18530273 C-241.56722656 437.18530273 -242.22722656 437.18530273 -242.90722656 437.18530273 C-244.23583984 435.39697266 -244.23583984 435.39697266 -245.72753906 432.91577148 C-246.52998047 431.58255859 -246.52998047 431.58255859 -247.34863281 430.22241211 C-248.18201172 428.81185547 -248.18201172 428.81185547 -249.03222656 427.37280273 C-249.59554687 426.4440332 -250.15886719 425.51526367 -250.73925781 424.55834961 C-254.90722656 417.5696853 -254.90722656 417.5696853 -254.90722656 414.18530273 C-255.56722656 414.18530273 -256.22722656 414.18530273 -256.90722656 414.18530273 C-269.97711768 386.10213305 -282.46437904 357.76452207 -285.51269531 326.63452148 C-285.7841459 323.2105962 -285.7841459 323.2105962 -286.90722656 320.18530273 C-288.26160837 309.06305153 -288.06144873 297.80058845 -288.03759766 286.6171875 C-288.03223027 283.62486725 -288.03757712 280.63269662 -288.04394531 277.64038086 C-288.04888725 264.93431999 -287.91088883 252.47551245 -285.43066406 239.96655273 C-284.88129935 237.04754021 -284.48871659 234.12907725 -284.09472656 231.18530273 C-282.87658332 223.07401562 -280.64819048 215.25476474 -278.48583984 207.35620117 C-277.72509729 204.50197213 -277.0683497 201.62652177 -276.40722656 198.74780273 C-275.15187123 193.64836495 -273.25924217 188.98990984 -271.15722656 184.18530273 C-269.92104473 181.21846634 -268.928035 178.25188975 -267.96972656 175.18530273 C-266.27969942 169.98729098 -264.10754031 165.25811298 -261.58300781 160.41577148 C-260.0911346 157.53982943 -258.68800511 154.63274317 -257.29223633 151.70947266 C-250.82058544 138.31093752 -243.03068514 124.96111529 -233.90722656 113.18530273 C-233.24722656 113.18530273 -232.58722656 113.18530273 -231.90722656 113.18530273 C-231.58044922 112.15083008 -231.58044922 112.15083008 -231.24707031 111.09545898 C-229.53271534 107.37186 -227.1661305 104.67778973 -224.46972656 101.62280273 C-223.49089576 100.49734025 -222.51300634 99.37105825 -221.53613281 98.24389648 C-221.0773877 97.71908691 -220.61864258 97.19427734 -220.14599609 96.65356445 C-219.09842711 95.41192475 -218.13123935 94.10314369 -217.18457031 92.78295898 C-216.76304687 92.25573242 -216.34152344 91.72850586 -215.90722656 91.18530273 C-215.24722656 91.18530273 -214.58722656 91.18530273 -213.90722656 91.18530273 C-213.90722656 90.52530273 -213.90722656 89.86530273 -213.90722656 89.18530273 C-211.53222656 86.56030273 -211.53222656 86.56030273 -208.90722656 84.18530273 C-208.24722656 84.18530273 -207.58722656 84.18530273 -206.90722656 84.18530273 C-206.90722656 83.52530273 -206.90722656 82.86530273 -206.90722656 82.18530273 C-206.24722656 82.18530273 -205.58722656 82.18530273 -204.90722656 82.18530273 C-204.90722656 81.52530273 -204.90722656 80.86530273 -204.90722656 80.18530273 C-203.39935496 78.81038975 -201.82182895 77.51165812 -200.21972656 76.24780273 C-195.22445534 72.25933037 -190.33272395 68.17648904 -185.50024414 63.9921875 C-182.12593176 61.10470299 -178.63154101 58.59950373 -174.90722656 56.18530273 C-174.16472656 55.60780273 -173.42222656 55.03030273 -172.65722656 54.43530273 C-170.90722656 53.18530273 -170.90722656 53.18530273 -168.90722656 53.18530273 C-168.90722656 52.52530273 -168.90722656 51.86530273 -168.90722656 51.18530273 C-167.89660156 50.62842773 -166.88597656 50.07155273 -165.84472656 49.49780273 C-163.25989315 48.02891146 -160.853958 46.45974226 -158.46972656 44.68530273 C-155.44011 42.46719061 -152.32895279 40.83342798 -148.94628906 39.22045898 C-146.81708601 38.13954173 -144.84922285 36.91914686 -142.84472656 35.62280273 C-139.93864612 33.76426292 -137.06563316 32.33484617 -133.85253906 31.05249023 C-131.45626769 29.98427288 -129.2430076 28.68248405 -126.96972656 27.37280273 C-116.85412408 21.78077557 -105.73321451 18.28071384 -94.67675781 15.04467773 C-92.01641554 14.21918366 -89.48673779 13.23259244 -86.90722656 12.18530273 C-58.92383778 2.26549464 -29.45380643 -0.00253475 0 0 Z M8.33886719 197.20092773 C1.6665667 207.82640938 1.76418196 221.17074488 0.96777344 233.37280273 C0.88285645 234.62988037 0.79793945 235.88695801 0.71044922 237.18212891 C0.09343781 246.86374552 -0.14088415 256.48851273 0.09277344 266.18530273 C4.07245919 264.84712469 6.48026105 263.18192559 9.40527344 260.18530273 C10.45134766 259.13342773 10.45134766 259.13342773 11.51855469 258.06030273 C13.30710843 256.33805236 13.30710843 256.33805236 13.09277344 254.18530273 C13.75277344 254.18530273 14.41277344 254.18530273 15.09277344 254.18530273 C16.72952852 252.56730771 16.72952852 252.56730771 18.40527344 250.49780273 C20.52922028 247.9872798 22.64778687 245.57706852 25.03027344 243.31030273 C27.3249319 241.43966574 27.3249319 241.43966574 27.09277344 239.18530273 C27.75277344 239.18530273 28.41277344 239.18530273 29.09277344 239.18530273 C29.09277344 238.52530273 29.09277344 237.86530273 29.09277344 237.18530273 C29.75277344 237.18530273 30.41277344 237.18530273 31.09277344 237.18530273 C35.31944523 231.93052159 38.19779245 226.24952607 41.09277344 220.18530273 C41.46144531 219.58331055 41.83011719 218.98131836 42.20996094 218.36108398 C44.70210733 212.21893558 44.0277005 203.3672648 42.18261719 197.08764648 C39.75602648 191.91456082 37.11023619 187.97278204 32.09277344 185.18530273 C20.92522137 182.97577173 14.43954849 188.40536553 8.33886719 197.20092773 Z M-29.81738281 337.78295898 C-39.8520914 349.31818474 -45.08366297 366.97732717 -45.09472656 381.93530273 C-45.10697266 382.79124023 -45.11921875 383.64717773 -45.13183594 384.52905273 C-45.15179103 393.30929303 -43.48934549 400.79917216 -39.65722656 408.68530273 C-39.35075195 409.32749756 -39.04427734 409.96969238 -38.72851562 410.63134766 C-34.22491256 420.05518388 -34.22491256 420.05518388 -26.90722656 427.18530273 C-25.63027746 423.35445542 -25.77603347 419.75727419 -25.79370117 415.76660156 C-25.79355515 414.90784927 -25.79340912 414.04909698 -25.79325867 413.1643219 C-25.79395577 410.32363364 -25.80173873 407.48301081 -25.80957031 404.64233398 C-25.81143521 402.6736403 -25.81285878 400.70494615 -25.81385803 398.73625183 C-25.81767755 393.55277222 -25.82750304 388.3693206 -25.83856201 383.18585205 C-25.84878826 377.89726134 -25.85335826 372.60866611 -25.85839844 367.32006836 C-25.86912579 356.94180085 -25.88619546 346.56355412 -25.90722656 336.18530273 C-28.06657584 335.97144541 -28.06657584 335.97144541 -29.81738281 337.78295898 Z M4.09277344 488.18530273 C3.32000008 507.86367903 4.56333045 527.15972962 6.46777344 546.74780273 C6.57882416 547.91098022 6.68987488 549.07415771 6.80429077 550.27258301 C7.12740516 553.62088503 7.46261736 556.9676948 7.80371094 560.31420898 C7.90278244 561.32244217 8.00185394 562.33067535 8.10392761 563.36946106 C8.61589605 568.19341885 9.14657444 572.68679485 11.09277344 577.18530273 C15.20832174 579.38026183 20.15381023 577.3832689 24.42089844 576.34545898 C31.76176443 574.02605771 38.69174001 570.45265835 45.09277344 566.18530273 C45.09277344 565.52530273 45.09277344 564.86530273 45.09277344 564.18530273 C45.75277344 564.18530273 46.41277344 564.18530273 47.09277344 564.18530273 C47.74111998 562.91574974 48.38635159 561.64460567 49.03027344 560.37280273 C49.38992188 559.66510742 49.74957031 558.95741211 50.12011719 558.22827148 C53.75866414 550.58586161 52.58371965 541.80593578 50.21777344 533.91186523 C48.27369866 529.200184 45.50263365 524.97312335 42.09277344 521.18530273 C41.43277344 521.18530273 40.77277344 521.18530273 40.09277344 521.18530273 C39.43277344 519.86530273 38.77277344 518.54530273 38.09277344 517.18530273 C37.43277344 517.18530273 36.77277344 517.18530273 36.09277344 517.18530273 C35.75246094 516.34225586 35.75246094 516.34225586 35.40527344 515.48217773 C33.72347709 512.53903413 31.62168233 510.68485542 29.09277344 508.43530273 C28.20589844 507.63608398 27.31902344 506.83686523 26.40527344 506.01342773 C24.32258646 503.97858282 24.32258646 503.97858282 22.09277344 504.18530273 C22.09277344 503.52530273 22.09277344 502.86530273 22.09277344 502.18530273 C20.57866229 500.61451633 20.57866229 500.61451633 18.59277344 498.99780273 C14.91884412 495.88607612 11.32414304 492.70377518 7.75683594 489.47045898 C6.17938286 487.98155741 6.17938286 487.98155741 4.09277344 488.18530273 Z " fill="#B59A85" transform="translate(306.9072265625,29.814697265625)"/>
<path d="M0 0 C2.8253494 -0.0021838 5.65030516 -0.02041583 8.47558594 -0.03930664 C20.80165057 -0.07682462 32.85768905 0.7267065 45.09277344 2.18530273 C46.48876956 2.34324998 47.88484322 2.50051394 49.28100586 2.65698242 C55.96223548 3.42705089 62.4836552 4.60957154 69.03027344 6.12280273 C69.71629639 6.28055176 70.40231934 6.43830078 71.10913086 6.60083008 C75.28606898 7.61197669 79.2422621 8.92824973 83.24731445 10.48291016 C85.66229794 11.40206712 88.1128603 12.14949473 90.59277344 12.87280273 C91.44871094 13.12416992 92.30464844 13.37553711 93.18652344 13.63452148 C93.81558594 13.8162793 94.44464844 13.99803711 95.09277344 14.18530273 C94.13291358 16.58495238 93.42697645 17.94845451 91.29589844 19.45874023 C88.58181452 20.35381046 86.66643362 20.18183697 83.84277344 19.81030273 C82.95074219 19.69944336 82.05871094 19.58858398 81.13964844 19.47436523 C80.12644531 19.3312793 80.12644531 19.3312793 79.09277344 19.18530273 C78.76277344 18.19530273 78.43277344 17.20530273 78.09277344 16.18530273 C77.14402344 16.20592773 76.19527344 16.22655273 75.21777344 16.24780273 C72.09277344 16.18530273 72.09277344 16.18530273 70.09277344 15.18530273 C68.22220552 14.95780123 66.34591386 14.77567463 64.46777344 14.62280273 C63.46488281 14.53901367 62.46199219 14.45522461 61.42871094 14.36889648 C60.65785156 14.30831055 59.88699219 14.24772461 59.09277344 14.18530273 C59.09277344 13.52530273 59.09277344 12.86530273 59.09277344 12.18530273 C58.28839844 12.20592773 57.48402344 12.22655273 56.65527344 12.24780273 C54.09277344 12.18530273 54.09277344 12.18530273 53.09277344 11.18530273 C51.22597586 11.05144906 49.3545049 10.98176018 47.48339844 10.93920898 C46.33613281 10.90633789 45.18886719 10.8734668 44.00683594 10.83959961 C41.57983806 10.77879529 39.15275066 10.72145774 36.72558594 10.66772461 C34.99695313 10.61648437 34.99695313 10.61648437 33.23339844 10.56420898 C32.17668945 10.53915283 31.11998047 10.51409668 30.03125 10.48828125 C27.09277344 10.18530273 27.09277344 10.18530273 24.77978516 9.17822266 C20.85178061 7.72672397 17.11463191 7.89964754 12.95996094 7.91967773 C12.0863089 7.91776428 11.21265686 7.91585083 10.31253052 7.91387939 C8.47185985 7.9125221 6.63117946 7.91618663 4.79052734 7.92456055 C1.97048557 7.93529241 -0.84892293 7.92463663 -3.66894531 7.91186523 C-5.4593113 7.9131864 -7.2496769 7.91574792 -9.04003906 7.91967773 C-9.88382111 7.91562927 -10.72760315 7.91158081 -11.59695435 7.90740967 C-16.54677917 7.94502172 -16.54677917 7.94502172 -20.90722656 10.18530273 C-23.81469727 10.45654297 -23.81469727 10.45654297 -27.33300781 10.49389648 C-29.24049805 10.53160156 -29.24049805 10.53160156 -31.18652344 10.57006836 C-33.86358573 10.60815863 -36.54055917 10.63635304 -39.21777344 10.66381836 C-40.49330078 10.69024414 -41.76882813 10.71666992 -43.08300781 10.74389648 C-44.24743408 10.75735107 -45.41186035 10.77080566 -46.61157227 10.78466797 C-50.28132936 11.23078038 -52.69165773 12.41037737 -55.90722656 14.18530273 C-61.18059459 15.50364474 -66.50727367 15.28134933 -71.90722656 15.18530273 C-72.23722656 16.17530273 -72.56722656 17.16530273 -72.90722656 18.18530273 C-74.37095703 18.3496582 -74.37095703 18.3496582 -75.86425781 18.51733398 C-77.1365625 18.67588867 -78.40886719 18.83444336 -79.71972656 18.99780273 C-80.98429687 19.14862305 -82.24886719 19.29944336 -83.55175781 19.45483398 C-87.11375414 20.23026275 -87.5574701 20.69769389 -89.90722656 23.18530273 C-92.94628906 24.24780273 -92.94628906 24.24780273 -96.53222656 25.18530273 C-97.79292969 25.52948242 -99.05363281 25.87366211 -100.35253906 26.22827148 C-101.52558594 26.5440918 -102.69863281 26.85991211 -103.90722656 27.18530273 C-110.88645195 29.12646992 -117.08910873 32.19615898 -123.47753906 35.56420898 C-126.91713529 37.18998625 -130.2439578 38.18779293 -133.90722656 39.18530273 C-136.12477044 40.09897339 -136.12477044 40.09897339 -138.03222656 41.12280273 C-138.69867188 41.46698242 -139.36511719 41.81116211 -140.05175781 42.16577148 C-141.63739741 43.03703871 -143.18357702 43.97947635 -144.71972656 44.93530273 C-146.90722656 46.18530273 -146.90722656 46.18530273 -149.90722656 46.18530273 C-150.23722656 47.17530273 -150.56722656 48.16530273 -150.90722656 49.18530273 C-152.8631984 50.58242547 -154.87313597 51.90457902 -156.90722656 53.18530273 C-158.13860259 54.11989892 -159.36777752 55.0574023 -160.59472656 55.99780273 C-161.68785156 56.71967773 -162.78097656 57.44155273 -163.90722656 58.18530273 C-164.89722656 57.85530273 -165.88722656 57.52530273 -166.90722656 57.18530273 C-165.91722656 56.52530273 -164.92722656 55.86530273 -163.90722656 55.18530273 C-163.18340189 53.12605134 -163.18340189 53.12605134 -162.90722656 51.18530273 C-163.56722656 51.18530273 -164.22722656 51.18530273 -164.90722656 51.18530273 C-163.15783417 45.93712557 -157.55517412 43.57843933 -152.81347656 41.08374023 C-151.50404094 40.44461094 -150.19152456 39.81175416 -148.87597656 39.18530273 C-146.77184804 38.11653904 -144.82644878 36.90330017 -142.84472656 35.62280273 C-139.93864612 33.76426292 -137.06563316 32.33484617 -133.85253906 31.05249023 C-131.45626769 29.98427288 -129.2430076 28.68248405 -126.96972656 27.37280273 C-116.85412408 21.78077557 -105.73321451 18.28071384 -94.67675781 15.04467773 C-92.01641554 14.21918366 -89.48673779 13.23259244 -86.90722656 12.18530273 C-58.92383778 2.26549464 -29.45380643 -0.00253475 0 0 Z " fill="#C2AC9B" transform="translate(306.9072265625,29.814697265625)"/>
<path d="M0 0 C0.99 0.33 1.98 0.66 3 1 C3 1.66 3 2.32 3 3 C3.66 3 4.32 3 5 3 C5 3.66 5 4.32 5 5 C5.639375 5.268125 6.27875 5.53625 6.9375 5.8125 C9 7 9 7 10 10 C10.66 10 11.32 10 12 10 C12 10.66 12 11.32 12 12 C12.66 12 13.32 12 14 12 C14 12.66 14 13.32 14 14 C14.66 14 15.32 14 16 14 C16 14.66 16 15.32 16 16 C16.99 16.33 17.98 16.66 19 17 C19 17.66 19 18.32 19 19 C19.66 19 20.32 19 21 19 C22.60634015 20.73391951 24.1375287 22.538091 25.625 24.375 C26.44226563 25.37273437 27.25953125 26.37046875 28.1015625 27.3984375 C30 30 30 30 30 32 C30.66 32 31.32 32 32 32 C32 32.66 32 33.32 32 34 C32.66 34 33.32 34 34 34 C34.96152652 35.35517161 35.91068403 36.72059219 36.80029297 38.12402344 C38.11504263 40.17989165 39.50233427 42.1708231 40.91015625 44.1640625 C41.42513672 44.89367187 41.94011719 45.62328125 42.47070312 46.375 C42.99599609 47.1175 43.52128906 47.86 44.0625 48.625 C44.59166016 49.37523437 45.12082031 50.12546875 45.66601562 50.8984375 C48.59681636 55.06267506 48.59681636 55.06267506 51.67358398 59.11865234 C53 61 53 61 53 63 C52.34 63 51.68 63 51 63 C50.67 63.99 50.34 64.98 50 66 C48.35 65.67 46.7 65.34 45 65 C45 63.35 45 61.7 45 60 C44.01 60 43.02 60 42 60 C41.566875 59.071875 41.13375 58.14375 40.6875 57.1875 C39.2554627 54.48254066 38.14813084 53.0458389 36 51 C36 50.34 36 49.68 36 49 C35.34 49 34.68 49 34 49 C33.505 46.03 33.505 46.03 33 43 C31.68 42.67 30.36 42.34 29 42 C28.67 40.68 28.34 39.36 28 38 C26.68 38 25.36 38 24 38 C24 36.35 24 34.7 24 33 C23.01 33 22.02 33 21 33 C20.71125 32.195625 20.4225 31.39125 20.125 30.5625 C19.26737432 27.8673532 19.26737432 27.8673532 17 27 C17 26.34 17 25.68 17 25 C16.01 25 15.02 25 14 25 C14 23.68 14 22.36 14 21 C12.35 20.67 10.7 20.34 9 20 C9 19.01 9 18.02 9 17 C8.34 17 7.68 17 7 17 C4.375 14.6875 4.375 14.6875 2 12 C2 11.01 2 10.02 2 9 C0.68 8.67 -0.64 8.34 -2 8 C-1.34 5.36 -0.68 2.72 0 0 Z " fill="#C0A999" transform="translate(511,111)"/>
<path d="M0 0 C0 6.27 0 12.54 0 19 C-0.33 19 -0.66 19 -1 19 C-1.33 40.45 -1.66 61.9 -2 84 C-3.98 84.495 -3.98 84.495 -6 85 C-6 57.61 -6 30.22 -6 2 C-1 0 -1 0 0 0 Z " fill="#BEA694" transform="translate(611,298)"/>
<path d="M0 0 C4.38168236 1.31711285 8.07376022 3.03357055 12 5.375 C13.04671875 5.99890625 14.0934375 6.6228125 15.171875 7.265625 C18.16878184 9.1035071 21.09543605 11.01961549 24 13 C26.65635805 14.68333312 29.32637606 16.34425319 32 18 C31.505 19.485 31.505 19.485 31 21 C30.505 20.01 30.505 20.01 30 19 C29.0409375 19.3403125 29.0409375 19.3403125 28.0625 19.6875 C23.62479709 20.14032683 20.10486859 18.58292318 16 17 C16 16.34 16 15.68 16 15 C13.66695622 14.05220097 11.34144935 13.1162103 8.95703125 12.3046875 C8.24933594 12.05976562 7.54164063 11.81484375 6.8125 11.5625 C6.13832031 11.33691406 5.46414063 11.11132812 4.76953125 10.87890625 C3 10 3 10 1 7 C-1.06327009 6.3249014 -3.0857141 5.99597007 -5.22265625 5.625 C-5.80917969 5.41875 -6.39570313 5.2125 -7 5 C-7.33 4.01 -7.66 3.02 -8 2 C-5.36 2 -2.72 2 0 2 C0 1.34 0 0.68 0 0 Z " fill="#C1AA99" transform="translate(440,61)"/>
<path d="M0 0 C0.66 0 1.32 0 2 0 C3.2279622 21.9955464 3.10378812 43.97935376 3 66 C1.515 66.495 1.515 66.495 0 67 C0 44.89 0 22.78 0 0 Z " fill="#B9A08E" transform="translate(285,375)"/>
<path d="M0 0 C-1.40007091 3.40224485 -2.8073761 4.80263335 -5.9375 6.6875 C-14.39773625 12.07252921 -21.79571199 18.58425108 -28.73046875 25.80078125 C-30.11573927 27.23804584 -31.556786 28.62092884 -33 30 C-33.66 30 -34.32 30 -35 30 C-32.92940039 25.3809701 -30.6190299 23.07059961 -26 21 C-26 20.34 -26 19.68 -26 19 C-20.52380952 14 -20.52380952 14 -18 14 C-18 13.34 -18 12.68 -18 12 C-17.360625 11.7525 -16.72125 11.505 -16.0625 11.25 C-13.81258459 10.18437567 -13.81258459 10.18437567 -13.25 7.875 C-13.1675 7.25625 -13.085 6.6375 -13 6 C-12.01 6 -11.02 6 -10 6 C-7.96186315 4.68760085 -7.96186315 4.68760085 -5.9375 3 C-2.20833333 0 -2.20833333 0 0 0 Z " fill="#BBA390" transform="translate(140,88)"/>
<path d="M0 0 C6.27 0 12.54 0 19 0 C19 0.99 19 1.98 19 3 C15.56060073 5.29293284 14.17437319 5.27019638 10.125 5.25 C8.58199219 5.25773437 8.58199219 5.25773437 7.0078125 5.265625 C3.963718 4.99679588 1.7565465 4.28164154 -1 3 C-0.67 2.01 -0.34 1.02 0 0 Z " fill="#BBA190" transform="translate(302,56)"/>
<path d="M0 0 C0.33 0 0.66 0 1 0 C1.05841253 3.54159657 1.09373452 7.08306793 1.125 10.625 C1.14175781 11.62402344 1.15851562 12.62304688 1.17578125 13.65234375 C1.21014246 18.84088709 1.10254937 23.14923649 -1 28 C-1.33 28 -1.66 28 -2 28 C-2 20.41 -2 12.82 -2 5 C-1.67 5 -1.34 5 -1 5 C-0.67 3.35 -0.34 1.7 0 0 Z " fill="#BBA28E" transform="translate(25,298)"/>
<path d="M0 0 C0.66 0 1.32 0 2 0 C2.38991022 1.93455454 2.76145349 3.87281828 3.125 5.8125 C3.33382813 6.89144531 3.54265625 7.97039063 3.7578125 9.08203125 C4 12 4 12 2 15 C1.01 14.34 0.02 13.68 -1 13 C-1.328125 10.21484375 -1.328125 10.21484375 -1.25 6.9375 C-1.23453125 5.85339844 -1.2190625 4.76929688 -1.203125 3.65234375 C-1 1 -1 1 0 0 Z M2 9 C3 11 3 11 3 11 Z " fill="#B2937C" transform="translate(287,565)"/>
<path d="M0 0 C0.99 0 1.98 0 3 0 C3 6.6 3 13.2 3 20 C2.01 19.67 1.02 19.34 0 19 C0 12.73 0 6.46 0 0 Z " fill="#BBA190" transform="translate(285,445)"/>
<path d="M0 0 C-1.77502198 2.27991712 -2.6300787 2.95047123 -5.54370117 3.34057617 C-6.53345947 3.32486572 -7.52321777 3.30915527 -8.54296875 3.29296875 C-10.15268555 3.2784668 -10.15268555 3.2784668 -11.79492188 3.26367188 C-12.91447266 3.23853516 -14.03402344 3.21339844 -15.1875 3.1875 C-16.31865234 3.17396484 -17.44980469 3.16042969 -18.61523438 3.14648438 C-21.41063317 3.11109958 -24.20507892 3.06172948 -27 3 C-27 2.67 -27 2.34 -27 2 C-24.18814406 1.66027199 -21.37571764 1.32809788 -18.5625 1 C-17.3878418 0.85691406 -17.3878418 0.85691406 -16.18945312 0.7109375 C-10.75624381 0.08488869 -5.46925737 -0.08759571 0 0 Z " fill="#BDA390" transform="translate(289,37)"/>
<path d="M0 0 C0.99 0.66 1.98 1.32 3 2 C1.7251791 4.84383123 0.54862922 7.13754018 -2 9 C-4.1875 8.6875 -4.1875 8.6875 -6 8 C-6 5 -6 5 -5 2 C-2.625 0.6875 -2.625 0.6875 0 0 Z " fill="#B9A18E" transform="translate(154,105)"/>
<path d="M0 0 C2.87526069 0.1416533 5.75013536 0.28818532 8.625 0.4375 C9.43324219 0.47681641 10.24148438 0.51613281 11.07421875 0.55664062 C15.45150865 0.78796082 19.68547281 1.16920917 24 2 C24 2.33 24 2.66 24 3 C20.56265937 3.08703823 17.12560163 3.14040272 13.6875 3.1875 C12.71103516 3.21263672 11.73457031 3.23777344 10.72851562 3.26367188 C9.32182617 3.27817383 9.32182617 3.27817383 7.88671875 3.29296875 C7.02264404 3.3086792 6.15856934 3.32438965 5.26831055 3.34057617 C2.54981464 2.93240678 1.69636171 2.10407096 0 0 Z " fill="#BDA491" transform="translate(331,37)"/>
<path d="M0 0 C0.33 0 0.66 0 1 0 C1 5.28 1 10.56 1 16 C0.34 15.34 -0.32 14.68 -1 14 C-1.33 17.3 -1.66 20.6 -2 24 C-2.33 24 -2.66 24 -3 24 C-3 18.72 -3 13.44 -3 8 C-2.34 8 -1.68 8 -1 8 C-0.67 5.36 -0.34 2.72 0 0 Z " fill="#BAA18F" transform="translate(48,296)"/>
<path d="M0 0 C0.33 0.99 0.66 1.98 1 3 C0.54625 3.391875 0.0925 3.78375 -0.375 4.1875 C-2.14889105 5.95743841 -2.14889105 5.95743841 -3 8.5 C-4.03323602 11.08309006 -5.03163326 12.11364854 -7 14 C-8.17574711 16.09989652 -8.17574711 16.09989652 -9 18 C-10 16 -10 16 -9.25 13.5625 C-8.03822872 11.07836888 -6.91457669 9.91457669 -5 8 C-3.80972016 5.40084462 -3.80972016 5.40084462 -3 3 C-2.34 3 -1.68 3 -1 3 C-0.67 2.01 -0.34 1.02 0 0 Z " fill="#BCA28F" transform="translate(73,155)"/>
<path d="M0 0 C0 3 0 3 -2.375 5.6875 C-5 8 -5 8 -7 8 C-6.74438677 5.6568787 -6.40729228 3.32156597 -6 1 C-4 0 -4 0 0 0 Z " fill="#BBA18F" transform="translate(208,77)"/>
<path d="M0 0 C2.3828125 -0.29296875 2.3828125 -0.29296875 5.125 -0.1875 C6.03507812 -0.16042969 6.94515625 -0.13335938 7.8828125 -0.10546875 C8.58148438 -0.07066406 9.28015625 -0.03585937 10 0 C9.67 0.99 9.34 1.98 9 3 C5.37 3 1.74 3 -2 3 C-1.34 2.01 -0.68 1.02 0 0 Z " fill="#AF937D" transform="translate(283,784)"/>
<path d="M0 0 C-5.00073317 2.80041057 -10.25451416 4.34821126 -16 4 C-11.71327571 -0.28672429 -5.76159905 -0.23516731 0 0 Z " fill="#BDA592" transform="translate(256,41)"/>
<path d="M0 0 C0 0.99 0 1.98 0 3 C0.99 3.33 1.98 3.66 3 4 C-3.625 4.125 -3.625 4.125 -7 3 C-7 2.34 -7 1.68 -7 1 C-4.53721199 -0.231394 -2.7204945 -0.07159196 0 0 Z " fill="#B99F8C" transform="translate(272,616)"/>
<path d="M0 0 C-1.45255699 3.82946843 -3.42895561 5.12050295 -7 7 C-3.86206897 0 -3.86206897 0 0 0 Z M-9 6 C-8.34 6.66 -7.68 7.32 -7 8 C-7.99 8.495 -7.99 8.495 -9 9 C-9 8.01 -9 7.02 -9 6 Z " fill="#BCA491" transform="translate(105,118)"/>
</svg>
